<svg xmlns="http://www.w3.org/2000/svg" viewBox="0 0 135 229"><g fill="#00b764"><path d="M87.48,228.93a14.93,14.93,0,0,1-8.13-5.64c-5.2-7.61-.12-18.66,9-19.61a13.11,13.11,0,0,1,7.28,1.24c.68.33,1.31.55,2,0,4.24-4,8.85-7.57,12.14-12.48,3.16-4.72,5.26-9.73,4.84-15.58-.17-2.37.06-2.46,2.41-3.05,1.16-.3,2.32-.6,3.44-1s1.63-.19,1.75,1.15c1,11-3.19,20-10.34,27.92a116.8,116.8,0,0,1-9,8.49,1.8,1.8,0,0,0-.73,2.11A12.77,12.77,0,0,1,93,228.67a3.79,3.79,0,0,0-.59.26ZM90,210.63a5.49,5.49,0,0,0-5.76,5.73A5.81,5.81,0,0,0,90.05,222a5.61,5.61,0,0,0,5.57-5.77A5.28,5.28,0,0,0,90,210.63Z"/><path d="M0,126.19a14.52,14.52,0,0,1,3.5-7.73,12.65,12.65,0,0,1,20.61,2.76,3.19,3.19,0,0,0,3.38,2c10.44-.06,16.83,0,27.27,0,1.1,0,2.28-.28,2.88,1.2.8,2,3.22,3.87,1.83,5.85-.52.74-1.39.52-2.13.52l-28.73,0c-.6,0-1.2,0-1.79,0a2.24,2.24,0,0,0-2.41,1.48,12.64,12.64,0,0,1-13.78,7.28c-5.52-.87-9.49-5.19-10.4-11.26A5.36,5.36,0,0,0,0,127.5Zm13-4.86a5.63,5.63,0,0,0-5.83,5.52,5.55,5.55,0,0,0,5.63,5.87,5.7,5.7,0,1,0,.2-11.39Z"/><path d="M115.19,0l1.88.52a12.58,12.58,0,0,1,9.47,11.59,12.22,12.22,0,0,1-7.15,12,2.82,2.82,0,0,0-1.87,3c.06,9.08,0,18.17,0,27.25,0,2.23-.24,2.39-2.5,2a28.25,28.25,0,0,0-2.92-.21c-1.86-.08-2.18-.34-2.18-2.23,0-6.53-.09-24.37,0-26.76A3,3,0,0,0,108.06,24a12.62,12.62,0,0,1-3.73-19.79c2.11-2.39,4.92-3.52,7.92-4.25Zm4.26,12.72A5.68,5.68,0,0,0,113.79,7a5.92,5.92,0,0,0-5.73,5.75,5.68,5.68,0,0,0,5.76,5.8C117.18,18.55,119.45,16.2,119.45,12.72Z"/><path d="M72.8,35.46c-2.39,0-4.79,0-7.18,0a2.39,2.39,0,0,0-2.45,1.46C59.92,43,52.71,45.66,46.77,43a12.74,12.74,0,0,1-6.71-16.54c2-5.14,6.2-7.57,11.53-8,4.51-.37,9.75,2.94,11.63,7.32a3,3,0,0,0,3.29,2.14c4.3-.12,8.6,0,12.89,0A15.87,15.87,0,0,1,95.56,44c0,3.86,0,7.72,0,11.58a2.28,2.28,0,0,1-1.72,2.57A20,20,0,0,0,89.8,60.2c-1.48.87-1.77.72-1.78-1,0-4.9,0-9.79,0-14.69a8.93,8.93,0,0,0-1.35-5.29,8,8,0,0,0-6.84-3.78ZM46.26,31.13c0,3.45,2.24,5.85,5.54,5.85a5.75,5.75,0,0,0,5.8-5.58,5.67,5.67,0,0,0-5.7-5.82A5.26,5.26,0,0,0,46.26,31.13Z"/><path d="M50.93,147.17c-3.76,0-7.51,0-11.26,0-5.07,0-8.46,3.44-8.51,8.52a4.7,4.7,0,0,1,0,.65c-.38,2.63.38,4.28,2.9,5.86a12.31,12.31,0,0,1,3.38,17.49,12.55,12.55,0,0,1-17.56,3.43c-4-2.84-6.17-6.78-5.62-11.76a12.34,12.34,0,0,1,7.9-10.54,2.07,2.07,0,0,0,1.5-2.19c0-2.87-.2-5.74.8-8.54,2.27-6.31,7.92-10.36,15.24-10.51,7-.15,14,0,21-.06a2,2,0,0,1,2.17,1.71,41,41,0,0,0,1.32,4c.63,1.72.55,1.9-1.24,1.91C59,147.18,55,147.17,50.93,147.17Zm-24,31a5.7,5.7,0,0,0,5.74-5.65,6,6,0,0,0-5.62-5.74,5.85,5.85,0,0,0-5.95,5.7A5.59,5.59,0,0,0,27,178.21Z"/><path d="M49.43,112.8c-7.61.18-11.36-2.57-17.18-6.4-5.25-3.46-9.13-8.35-13.34-12.88a2.25,2.25,0,0,0-2.65-.76A12.64,12.64,0,0,1,9.1,68.51c8.63-2.41,15.82,3.09,16.61,11.55a11,11,0,0,1-1.48,6.27c-.32.58-.72,1.12-.09,1.75,3.87,3.81,7,8.29,11.51,11.51a33.11,33.11,0,0,0,9.85,5c3.21,1,2.52.75,5.83.73,2.29,0,2.32-.12,2.39,2.15-.07,1,0,2.27-.18,3.44a2,2,0,0,1-2.44,1.93C50.4,112.76,49.69,112.8,49.43,112.8ZM18.62,80.67a5.8,5.8,0,0,0-5.88-5.91,5.71,5.71,0,0,0-5.52,6.09A5.79,5.79,0,0,0,13,86.31,5.62,5.62,0,0,0,18.62,80.67Z"/><path d="M39.3,77.52c0-1.74,0-3.48,0-5.22a1.93,1.93,0,0,0-1.3-2c-5.24-2.43-8.22-7.33-7.77-12.6a12.82,12.82,0,0,1,9.82-11.48C48.23,44,56.61,51.43,55.6,59.84a12.79,12.79,0,0,1-7.46,10.35,2,2,0,0,0-1.24,2c0,3.15,0,6.31.05,9.46a7.69,7.69,0,0,0,7.43,7.59,6.84,6.84,0,0,0,1.5,0c1.41,0,2.22.57,1.68,2-.67,1.74-1.93,6.09-3.73,6a22,22,0,0,1-6-2,15.33,15.33,0,0,1-8.54-13.5C39.25,80.35,39.3,78.93,39.3,77.52Zm3.19-13.27c3.64-.06,6.29-2.46,6.26-5.66A6,6,0,0,0,43,52.84a5.86,5.86,0,0,0-5.85,5.92A5.61,5.61,0,0,0,42.49,64.25Z"/><path d="M82.73,190.5c-1.88,0-3.41.08-4.93,0a2.52,2.52,0,0,0-2.74,1.72,12.55,12.55,0,0,1-14.53,6.87,12.71,12.71,0,0,1,.66-24.82c5.87-1,11,1.38,13.65,6.64a3.26,3.26,0,0,0,3.45,2.05c3.52-.14,7.06.21,10.58-.2,3.16-.37,7-4.49,8.15-7.39.48-1.17,1-1.33,2.08-.78,1.31.67,3.47.43,4.84,1,1,.39,1.35.94.88,2-2.49,5.5-9.14,11.91-15.12,12.74A54.58,54.58,0,0,1,82.73,190.5Zm-13.52-3.64c0-3.48-2.24-5.79-5.61-5.78a5.66,5.66,0,0,0-5.73,5.63,5.74,5.74,0,0,0,5.83,5.74A5.47,5.47,0,0,0,69.21,186.86Z"/><path d="M107.4,58.7h2.09a21.35,21.35,0,0,1,2.52.18h0a26.23,26.23,0,0,1,22.37,21.27c.37,1.91.43,3.85.7,5.77V146a5.88,5.88,0,0,0-.14.73,28.55,28.55,0,0,1-1.57,7.93c-3.08,8.21-8.36,14.19-16.91,16.77a32.16,32.16,0,0,1-10.11,1.06,25.87,25.87,0,0,1-15.83-5.59,26.59,26.59,0,0,1-7-8.39,6.34,6.34,0,0,0-4.11-3.44,10.33,10.33,0,0,1-1.38-.49c-8.59-3.41-12.61-10.54-12.29-18.73a10,10,0,0,0-2.39-7.05,30.88,30.88,0,0,1-6.2-11.23,38.72,38.72,0,0,1-1-4.75,10.73,10.73,0,0,1-.17-2.19c0-2.33.21-6.09.33-6.68,2.64-12.19,9.22-21,21.46-24.91A6.9,6.9,0,0,0,82.33,75a26.51,26.51,0,0,1,16.4-14.73A34.09,34.09,0,0,1,104,59,20.57,20.57,0,0,1,107.4,58.7Zm19.67,57h0V89a48.73,48.73,0,0,0-.4-6.39c-1.12-9-9-16.14-17.93-16S93.11,70.36,89.32,78.79a13.06,13.06,0,0,1-9.1,7.79A19.5,19.5,0,0,0,69.3,93.93C65.11,99.4,63,105.5,64.16,112.46a24.1,24.1,0,0,0,6,12,13.9,13.9,0,0,1,3.58,10.73c-.49,6,2.31,10.22,8,12.19l1,.35a12.91,12.91,0,0,1,6.69,5.07c.62.91,1.17,1.86,1.74,2.81a17.45,17.45,0,0,0,12,8.51,26.49,26.49,0,0,0,7.44.29,16.12,16.12,0,0,0,10.29-4.49c4.35-4.26,6.2-9.56,6.23-15.53C127.1,134.85,127.07,125.3,127.07,115.74Z"/></g></svg>